<svg width="430" height="431" viewBox="0 0 430 431" fill="none" xmlns="http://www.w3.org/2000/svg">
<path d="M248.88 242.682H256.5C278.513 242.682 299.624 251.426 315.19 266.992C330.755 282.557 339.5 303.669 339.5 325.682V353.422C339.5 357.102 338.147 360.654 335.698 363.401C333.249 366.148 329.876 367.9 326.22 368.322L297.22 371.682C289.287 372.591 281.521 374.611 274.15 377.682C255.38 385.53 235.241 389.581 214.897 389.602C194.553 389.623 174.406 385.612 155.62 377.802L155.42 377.722C147.727 374.524 139.626 372.417 131.35 371.462L103.82 368.292C100.162 367.879 96.7832 366.136 94.327 363.394C91.8709 360.652 90.5087 357.103 90.5 353.422V325.682C90.5 303.669 99.2446 282.557 114.81 266.992C130.376 251.426 151.487 242.682 173.5 242.682H181.13" stroke="#121331" stroke-width="12" stroke-linecap="round" stroke-linejoin="round"/>
<path d="M248.88 223.422V242.422C248.727 251.305 245.091 259.773 238.755 266.002C232.419 272.23 223.89 275.72 215.005 275.72C206.12 275.72 197.591 272.23 191.255 266.002C184.919 259.773 181.283 251.305 181.13 242.422V223.422" stroke="#121331" stroke-width="12" stroke-linecap="round" stroke-linejoin="round"/>
<path d="M154 136.492V136.732L154.51 151.442L154.98 164.992L155.38 176.452C155.893 191.9 162.408 206.54 173.54 217.262C175.883 219.522 178.404 221.589 181.08 223.442C189.883 229.519 200.159 233.116 210.83 233.854C221.502 234.592 232.175 232.446 241.731 227.639C251.288 222.832 259.374 215.543 265.143 206.535C270.912 197.527 274.151 187.133 274.52 176.442L274.92 164.982L275.42 150.562L275.78 140.132" stroke="#121331" stroke-width="12" stroke-linecap="round" stroke-linejoin="round"/>
<path d="M154.05 136.731C193.13 135.101 224.33 110.791 238.88 76.6313C271.67 99.9913 269.88 120.451 275.88 140.161C290.26 120.511 287.44 81.4113 277.37 65.9913C269 53.1513 253.71 48.9913 253.71 48.9913C231.91 43.7013 209.62 51.5313 198.57 56.4913C196.319 57.5025 193.844 57.9081 191.388 57.6678C188.932 57.4275 186.582 56.5497 184.57 55.1213L168.63 43.7913C167.225 42.7401 165.623 41.9825 163.92 41.5636C162.216 41.1447 160.445 41.0731 158.713 41.353C156.981 41.633 155.324 42.2588 153.839 43.1931C152.354 44.1274 151.072 45.3511 150.07 46.7913C143.356 56.8348 138.975 68.2541 137.25 80.2113C132.32 113.081 154.16 136.591 154.16 136.591" stroke="#08A88A" stroke-width="12" stroke-linecap="round" stroke-linejoin="round"/>
<path d="M201.05 136.041H154.56V164.991H201.05V136.041Z" stroke="#121331" stroke-width="12" stroke-linecap="round" stroke-linejoin="round"/>
<path d="M275.48 136.041H228.99V164.991H275.48V136.041Z" stroke="#121331" stroke-width="12" stroke-linecap="round" stroke-linejoin="round" cl/>
<path d="M228.99 147.512H201.05" stroke="#121331" stroke-width="12" stroke-linecap="round" stroke-linejoin="round"/>
<path d="M224.33 311.051L202.33 327.261L224.33 343.471" stroke="#08A88A" stroke-width="12" stroke-linecap="round" stroke-linejoin="round"/>
<path d="M286.57 311.051L308.57 327.261L286.57 343.471" stroke="#08A88A" stroke-width="12" stroke-linecap="round" stroke-linejoin="round"/>
<path d="M260.46 311.051L249.96 343.471" stroke="#08A88A" stroke-width="12" stroke-linecap="round" stroke-linejoin="round"/>
</svg>
